<?xml version="1.0" standalone="no"?>
<!DOCTYPE svg PUBLIC "-//W3C//DTD SVG 20010904//EN"
 "http://www.w3.org/TR/2001/REC-SVG-20010904/DTD/svg10.dtd">
<svg version="1.0" xmlns="http://www.w3.org/2000/svg"
 width="225.000000pt" height="225.000000pt" viewBox="0 0 225.000000 225.000000"
 preserveAspectRatio="xMidYMid meet">

<g transform="translate(0.000000,225.000000) scale(0.100000,-0.100000)"
fill="#000000" stroke="none">
<path d="M790 1914 c0 -77 12 -115 46 -145 11 -9 145 -76 299 -149 296 -140
383 -190 453 -260 l42 -42 0 101 c0 124 -17 167 -82 205 -24 14 -204 101 -400
194 l-358 170 0 -74z"/>
<path d="M600 1344 l0 -245 32 36 c43 50 90 71 237 109 144 38 167 48 176 76
15 46 -2 60 -184 147 -97 47 -195 94 -218 104 l-43 18 0 -245z"/>
<path d="M1193 1310 c-12 -5 -59 -37 -105 -72 -46 -35 -109 -78 -140 -96 -32
-18 -66 -44 -76 -57 -10 -13 -29 -25 -42 -27 -16 -2 -33 -19 -54 -55 -17 -29
-40 -59 -51 -67 -20 -15 -19 -15 5 -16 14 0 30 4 36 8 17 11 34 48 34 75 0 25
23 52 37 44 11 -7 -2 -248 -16 -290 -10 -30 -20 -38 -69 -56 -63 -23 -89 -37
-82 -45 3 -2 60 -21 128 -40 67 -20 176 -52 242 -71 198 -58 315 -127 354
-210 9 -19 19 -35 21 -35 18 0 130 78 154 107 55 67 61 102 61 365 l0 239 -35
-36 c-20 -19 -57 -46 -83 -59 -51 -26 -161 -61 -168 -53 -2 2 5 15 16 30 25
32 25 42 -1 79 -14 19 -27 27 -38 24 -12 -4 -11 -2 3 9 31 23 94 23 112 -1 16
-21 22 -18 30 18 3 18 12 37 19 43 16 13 37 117 29 141 -4 10 -13 26 -20 34
-7 8 -13 20 -14 25 -1 6 -18 16 -38 24 -31 13 -39 13 -64 -2 -27 -16 -30 -15
-65 8 -37 26 -80 31 -120 15z m223 -80 c2 -43 -18 -52 -24 -11 -3 17 12 51 22
51 1 0 2 -18 2 -40z m54 -60 c0 -5 -4 -10 -10 -10 -5 0 -10 5 -10 10 0 6 5 10
10 10 6 0 10 -4 10 -10z m-345 -256 c4 -28 16 -56 30 -70 l23 -23 -54 -12
c-50 -11 -57 -11 -82 8 -26 20 -29 34 -20 88 2 16 -3 21 -29 23 l-33 3 0 -47
c0 -38 5 -54 26 -75 l26 -28 -43 -11 c-24 -6 -57 -15 -73 -20 -15 -6 -32 -8
-36 -5 -12 8 5 70 29 104 12 16 28 46 37 66 l15 36 57 -6 c32 -4 68 -2 82 4
37 15 37 15 45 -35z m186 6 c21 0 25 -15 8 -25 -5 -4 -14 -17 -19 -30 -6 -15
-19 -24 -40 -27 -26 -4 -33 -1 -41 19 -13 35 -11 55 7 81 l15 22 26 -20 c14
-11 34 -20 44 -20z m187 -256 c44 -56 52 -73 52 -110 0 -31 -7 -51 -26 -74
-30 -36 -84 -67 -84 -49 0 6 -20 30 -45 53 -46 44 -55 73 -35 121 l8 20 8 -20
c4 -11 29 -43 56 -72 41 -45 48 -49 48 -29 0 12 -20 54 -45 92 -51 80 -57 120
-23 174 l22 35 6 -37 c4 -22 27 -63 58 -104z"/>
</g>
</svg>
