<?xml version="1.0" standalone="no"?>
<!DOCTYPE svg PUBLIC "-//W3C//DTD SVG 20010904//EN"
 "http://www.w3.org/TR/2001/REC-SVG-20010904/DTD/svg10.dtd">
<svg version="1.0" xmlns="http://www.w3.org/2000/svg"
 width="640.000000pt" height="826.000000pt" viewBox="0 0 640.000000 826.000000"
 preserveAspectRatio="xMidYMid meet">

<g transform="translate(0.000000,826.000000) scale(0.100000,-0.100000)"
fill="#000000" stroke="none">
<path d="M0 6023 c0 -1461 4 -2278 10 -2353 63 -694 408 -1439 990 -2135 646
-774 1527 -1415 2090 -1521 106 -20 204 -14 325 21 632 183 1589 951 2193
1759 421 564 674 1104 771 1645 21 113 21 139 21 2468 l0 2353 -3200 0 -3200
0 0 -2237z m3259 1941 c31 -25 31 -27 31 -119 l0 -93 65 -16 c82 -20 179 -66
225 -105 l35 -30 70 69 c83 82 113 93 149 56 43 -42 35 -69 -44 -150 l-69 -72
50 -99 c28 -57 55 -128 63 -165 l13 -65 105 -5 c121 -6 138 -14 138 -71 0 -58
-23 -69 -142 -69 l-98 0 -5 -27 c-17 -80 -62 -202 -92 -245 -18 -28 -33 -53
-33 -57 0 -3 32 -38 70 -76 68 -68 79 -90 64 -130 -9 -21 -61 -47 -82 -41 -10
3 -48 37 -86 75 l-68 68 -63 -42 c-64 -43 -137 -75 -220 -96 l-45 -11 0 -88
c0 -105 -19 -140 -75 -140 -56 0 -75 35 -75 140 l0 87 -47 7 c-74 10 -165 43
-234 86 l-64 38 -61 -59 c-70 -69 -112 -81 -146 -39 -34 42 -24 74 43 138 l61
57 -40 60 c-46 69 -87 162 -97 220 -14 73 -17 75 -107 75 -97 0 -118 13 -118
71 0 55 25 69 126 69 l82 0 16 65 c25 98 53 167 95 233 l39 60 -59 58 c-68 67
-75 99 -33 140 35 36 66 26 136 -43 l57 -56 103 52 c74 38 123 56 176 64 l72
11 1 86 c1 98 6 117 40 136 34 19 43 17 78 -12z m-2311 -106 c36 -18 97 -62
135 -98 l71 -67 -23 -32 -24 -33 -46 44 c-96 92 -187 147 -242 148 -38 0 -77
-35 -89 -81 -10 -37 -13 -39 -51 -39 -40 0 -41 0 -34 33 18 87 48 132 105 156
43 18 128 5 198 -31z m692 20 c49 -34 69 -66 82 -136 13 -68 2 -184 -27 -295
-46 -175 -179 -467 -289 -632 -70 -105 -206 -274 -258 -322 l-24 -23 -23 30
-22 31 51 55 c237 261 449 666 505 969 41 216 -18 309 -152 244 -153 -74 -349
-297 -519 -591 -21 -37 -42 -68 -45 -68 -3 0 -14 18 -24 39 l-18 40 28 48
c105 181 261 382 384 495 135 125 271 170 351 116z m3318 -14 c76 -33 222
-151 222 -178 0 -5 -10 -20 -21 -32 l-21 -23 -77 66 c-91 78 -156 113 -210
113 -49 0 -80 -25 -90 -70 -6 -33 -10 -35 -48 -38 l-42 -3 6 38 c8 54 37 107
70 128 60 40 121 39 211 -1z m720 9 c15 -11 38 -40 52 -64 23 -40 25 -54 24
-154 -1 -82 -8 -134 -27 -205 -70 -265 -236 -591 -413 -807 -50 -63 -151 -173
-157 -173 -2 0 -14 14 -26 31 l-23 31 55 57 c67 68 177 218 251 339 187 306
299 668 255 825 -51 184 -366 -49 -617 -456 -38 -62 -76 -125 -85 -142 l-15
-30 -22 46 -22 46 56 90 c178 289 356 483 511 560 59 29 78 34 123 30 32 -2
64 -12 80 -24z m-4931 -237 c61 -52 21 -156 -60 -156 -65 0 -111 63 -87 120
26 63 96 80 147 36z m4012 10 c27 -14 51 -53 51 -82 0 -32 -31 -73 -63 -83
-62 -21 -118 20 -120 85 -1 29 5 42 31 65 36 32 60 36 101 15z m-3429 -166
c34 -44 84 -117 111 -161 l50 -81 -18 -44 c-10 -24 -20 -44 -23 -44 -3 0 -31
44 -62 98 -31 54 -84 134 -117 177 l-59 80 26 28 c14 15 27 27 28 27 2 0 31
-36 64 -80z m4076 -67 c36 -51 77 -113 91 -138 25 -46 25 -47 8 -86 -10 -21
-22 -39 -26 -39 -5 0 -20 22 -33 49 -31 60 -159 253 -180 271 -21 17 -20 32 6
65 l22 28 23 -29 c13 -16 53 -70 89 -121z m-4627 -61 c36 -109 99 -242 175
-367 29 -49 53 -91 52 -93 -2 -1 -24 1 -51 4 l-47 7 -73 148 c-71 146 -145
333 -145 369 0 13 9 20 28 22 15 2 28 3 28 3 1 0 16 -42 33 -93z m4031 -3 c38
-114 94 -232 168 -356 l61 -103 -29 0 c-61 0 -72 13 -142 151 -62 126 -148
342 -148 373 0 14 23 25 48 22 7 0 26 -39 42 -87z m-3595 73 c14 -9 55 -63 55
-71 0 -3 -38 -6 -84 -6 l-85 0 19 30 c26 43 71 65 95 47z m-292 -44 c-15 -24
-27 -43 -28 -44 0 -1 -14 -4 -32 -7 -29 -6 -32 -4 -39 26 -5 18 -9 37 -9 42 0
10 50 21 108 24 l27 1 -27 -42z m4036 5 c-44 -76 -89 -86 -107 -26 -6 20 -10
39 -7 41 3 3 84 17 123 21 10 1 7 -11 -9 -36z m315 4 c15 -19 26 -37 26 -40 0
-4 -38 -7 -85 -7 l-85 0 26 40 c22 33 32 40 60 40 26 0 39 -7 58 -33z m-3726
8 c2 -2 -1 -20 -8 -39 -11 -35 -24 -43 -45 -28 -14 9 -55 68 -55 77 0 7 101
-2 108 -10z m4025 -4 c14 -13 -14 -71 -34 -71 -15 0 -69 65 -69 85 0 7 93 -6
103 -14z m-4903 -57 c7 -19 10 -37 8 -39 -1 -1 -45 -17 -96 -34 -148 -49 -222
-102 -222 -157 0 -36 62 -97 132 -132 139 -68 384 -118 630 -129 160 -7 155
-4 110 -61 l-18 -24 -170 12 c-100 7 -228 23 -314 40 -122 24 -160 36 -245 79
-108 55 -141 80 -180 137 -71 105 27 238 235 315 102 38 116 37 130 -7z m4030
0 c7 -19 10 -38 7 -41 -3 -3 -45 -18 -94 -35 -104 -35 -161 -66 -197 -109 -32
-37 -33 -56 -3 -99 73 -109 447 -210 774 -210 62 0 113 -3 113 -7 0 -3 -11
-21 -26 -40 -23 -31 -29 -33 -85 -33 -113 0 -304 22 -442 50 -210 44 -370 128
-417 221 -24 45 -25 68 -6 113 34 81 118 146 255 197 100 37 107 36 121 -7z
m-2919 10 c73 -22 180 -77 224 -115 74 -65 97 -166 54 -236 l-21 -34 -18 29
c-10 17 -23 33 -29 37 -8 4 -8 12 -1 25 17 32 11 67 -16 99 -28 34 -135 89
-227 117 -41 13 -56 22 -52 32 3 8 8 25 11 38 7 28 6 28 75 8z m4132 -42 c106
-47 183 -125 201 -203 6 -30 -6 -81 -29 -116 l-16 -24 -28 38 c-17 22 -25 42
-20 48 21 22 9 73 -23 106 -35 34 -142 88 -218 110 -61 17 -64 21 -46 62 l14
36 59 -18 c32 -10 80 -27 106 -39z m-4664 -148 c64 -54 27 -154 -56 -154 -86
1 -124 91 -64 151 37 37 79 38 120 3z m4039 -10 c34 -39 30 -95 -9 -128 -35
-30 -58 -32 -99 -11 -49 25 -63 75 -36 124 31 55 102 63 144 15z m-4474 -148
c33 -57 26 -80 -22 -72 -19 3 -37 7 -39 10 -5 4 27 106 33 106 1 0 14 -20 28
-44z m815 -68 c93 -256 115 -430 67 -534 -42 -90 -103 -118 -198 -90 -61 18
-150 74 -227 143 l-54 49 23 32 24 32 35 -33 c104 -97 188 -146 253 -147 28 0
42 7 62 31 23 27 26 39 26 107 0 89 -36 258 -75 357 l-27 67 23 49 c12 27 23
49 25 49 1 0 20 -51 43 -112z m3219 56 c16 -32 20 -50 13 -58 -12 -14 -68 -9
-77 5 -6 11 25 99 35 99 4 0 17 -21 29 -46z m820 -86 c74 -212 96 -331 80
-433 -24 -155 -123 -212 -257 -150 -66 31 -164 100 -211 149 l-34 36 27 27 27
27 42 -41 c191 -184 332 -182 330 5 -1 85 -35 244 -74 346 l-31 79 22 45 c12
25 26 41 30 36 5 -5 27 -62 49 -126z m-3710 96 c33 -23 45 -60 32 -100 -31
-94 -161 -81 -177 18 -5 32 -1 41 25 68 35 34 83 40 120 14z m4021 1 c83 -42
50 -165 -44 -165 -71 0 -112 67 -80 129 25 49 73 63 124 36z m-4191 -142 c10
-18 8 -22 -16 -27 -15 -4 -34 -9 -43 -12 -11 -3 -19 7 -28 37 -7 22 -11 42 -9
44 2 2 19 7 38 12 31 8 36 7 41 -12 3 -12 11 -31 17 -42z m4024 17 l16 -40
-36 -10 c-50 -14 -49 -14 -58 23 -12 47 -11 50 16 58 42 12 44 10 62 -31z
m-4273 -49 c6 -19 10 -35 9 -36 -2 -2 -29 -6 -61 -9 l-57 -7 27 45 c26 42 50
60 64 47 4 -3 11 -21 18 -40z m4029 2 c6 -20 10 -38 8 -40 -7 -7 -106 -15
-106 -9 0 3 11 24 25 46 32 51 58 52 73 3z m-4812 -68 c9 -3 8 -19 -3 -62 -21
-87 -22 -230 -1 -269 19 -35 35 -44 81 -44 25 0 36 -7 50 -31 10 -18 16 -34
13 -36 -2 -3 -31 -7 -63 -10 -47 -3 -64 0 -91 16 -73 47 -101 142 -84 284 7
50 17 109 22 130 11 38 17 40 76 22z m4039 -7 c2 -2 -3 -30 -11 -63 -8 -33
-16 -98 -17 -145 -1 -70 2 -92 19 -120 17 -30 26 -35 64 -38 38 -3 48 -9 66
-37 l22 -33 -22 -6 c-11 -3 -45 -6 -75 -6 -49 0 -57 3 -91 38 -71 71 -84 180
-44 363 l15 67 35 -8 c20 -5 37 -10 39 -12z m-3648 -46 c10 -12 8 -20 -10 -43
-12 -15 -25 -28 -29 -28 -9 -1 -68 78 -68 89 0 14 95 -2 107 -18z m4032 4 c14
-17 5 -41 -26 -69 -19 -16 -21 -15 -51 27 -18 24 -32 47 -32 50 0 13 98 6 109
-8z m-4130 -212 c26 -21 31 -33 31 -68 0 -67 -54 -106 -117 -85 -70 23 -83
121 -20 159 43 27 69 25 106 -6z m4023 5 c31 -17 50 -71 37 -108 -31 -88 -161
-74 -175 20 -8 50 33 99 83 99 19 0 43 -5 55 -11z m-4192 -714 l0 -225 455 0
455 0 0 225 0 225 470 0 470 0 0 -225 0 -225 455 0 455 0 0 225 0 225 475 0
475 0 0 -225 0 -225 450 0 450 0 2 223 3 222 428 3 428 2 -4 -1192 c-4 -1299
-1 -1218 -63 -1496 -32 -143 -115 -399 -179 -546 -317 -739 -943 -1509 -1700
-2091 -427 -328 -843 -548 -1114 -587 -331 -49 -925 255 -1561 798 -242 206
-591 573 -794 834 -410 526 -701 1108 -805 1610 -57 274 -55 198 -58 1483 l-4
1187 406 0 405 0 0 -225z"/>
<path d="M3040 7631 c-144 -46 -276 -155 -339 -279 -111 -219 -72 -472 99
-642 101 -102 260 -170 395 -170 136 0 295 69 394 170 292 295 173 775 -226
915 -86 31 -237 34 -323 6z m88 -88 c3 -48 2 -51 -25 -56 -15 -3 -35 -8 -43
-12 -20 -7 -66 80 -48 91 18 11 92 33 103 30 6 -1 11 -25 13 -53z m154 51 c8
-7 -15 -95 -25 -95 -4 1 -23 1 -42 1 l-35 0 0 50 0 50 48 0 c27 0 51 -2 54 -6z
m118 -30 c22 -9 40 -19 40 -23 0 -5 -39 -68 -55 -89 -2 -2 -20 4 -40 12 -25
11 -35 21 -32 30 3 8 9 31 13 50 7 41 16 43 74 20z m180 -131 c75 -85 130
-231 130 -343 0 -61 -38 -191 -73 -248 -145 -239 -443 -321 -690 -190 -84 45
-171 137 -211 223 -48 100 -50 113 -17 119 89 18 101 18 101 4 0 -34 64 -139
111 -183 71 -67 145 -98 246 -103 99 -5 170 14 246 67 206 144 223 454 35 616
l-40 34 32 45 33 45 28 -20 c15 -10 46 -41 69 -66z m-295 2 c201 -52 312 -267
238 -458 -73 -187 -289 -275 -469 -193 -74 34 -129 88 -166 164 -30 60 -33 75
-33 152 1 94 20 150 75 220 57 71 169 128 260 129 20 1 63 -6 95 -14z m-411
-60 c18 -13 18 -15 -3 -49 l-22 -35 -50 21 c-47 20 -49 22 -36 42 8 12 20 31
27 43 13 20 16 21 40 7 14 -9 33 -22 44 -29z m-97 -111 c42 -16 49 -27 37 -58
-5 -12 -20 -16 -61 -16 -47 0 -54 2 -49 18 3 9 8 29 12 45 7 32 6 32 61 11z
m31 -168 l1 -45 -47 -6 c-26 -4 -54 -7 -62 -8 -11 -2 -16 11 -18 50 l-3 52 58
3 c32 2 61 2 64 1 4 -2 7 -23 7 -47z"/>
<path d="M3094 7311 c-51 -23 -111 -93 -125 -145 -27 -99 17 -206 105 -261
122 -75 294 -11 335 124 35 118 -21 239 -131 285 -50 21 -134 20 -184 -3z
m171 -40 c183 -83 126 -351 -75 -351 -119 0 -209 111 -179 223 31 118 148 177
254 128z"/>
<path d="M4875 5375 c-55 -131 -160 -208 -308 -226 -163 -20 -231 -49 -344
-150 -117 -104 -132 -108 -415 -125 -414 -24 -564 -66 -678 -191 -94 -103
-118 -279 -56 -402 71 -139 245 -245 446 -272 94 -13 159 -9 302 16 88 16 110
17 120 6 18 -18 -34 -60 -141 -113 l-85 -42 44 -14 c28 -8 77 -12 130 -10 101
5 165 30 253 103 32 26 60 45 63 42 3 -2 -2 -22 -11 -44 -17 -42 -51 -73 -120
-110 l-40 -21 28 -7 c93 -24 261 29 410 129 l94 63 34 -46 c36 -49 89 -84 154
-102 33 -10 244 -29 253 -24 1 1 -23 23 -55 49 -101 83 -131 144 -112 222 31
122 186 204 386 204 149 0 275 -44 364 -127 72 -68 93 -112 93 -198 0 -89 -25
-148 -93 -214 -96 -93 -207 -130 -417 -138 -226 -9 -486 16 -924 88 -286 48
-317 47 -477 -7 -91 -31 -126 -37 -220 -41 -61 -3 -146 -2 -188 2 -70 6 -75 8
-61 23 14 16 8 17 -72 14 -82 -3 -90 -1 -134 27 -59 38 -109 113 -141 211 -36
109 -42 150 -22 150 27 0 91 38 109 64 l16 26 -35 0 c-95 0 -160 83 -231 294
-18 54 -45 119 -60 145 l-27 46 28 -25 c27 -25 27 -24 -9 48 -68 135 -156 203
-246 188 -38 -6 -40 -5 -53 26 -8 18 -27 46 -43 62 -31 31 -117 76 -146 76
-16 0 -16 -3 -3 -41 16 -44 19 -91 9 -102 -4 -4 -25 9 -46 29 -45 40 -109 70
-183 86 -84 18 -120 44 -172 125 l-24 38 7 -55 c7 -57 33 -134 60 -174 15 -23
14 -24 -16 -31 -57 -13 -108 4 -157 50 l-45 44 6 -42 c8 -50 49 -122 76 -137
31 -17 24 -26 -22 -29 -60 -3 -134 -38 -169 -80 l-30 -36 26 -3 c14 -2 25 -5
25 -8 0 -13 -79 -74 -96 -74 -30 0 -90 -69 -98 -114 -4 -21 -2 -52 4 -72 12
-34 11 -35 -44 -89 -68 -67 -106 -140 -116 -220 -4 -33 -6 -61 -5 -63 1 -2 17
22 34 53 28 49 51 70 51 46 0 -24 -69 -108 -103 -124 -37 -19 -38 -19 -112 6
-41 14 -75 24 -75 23 0 -2 30 -24 68 -49 74 -50 124 -67 194 -67 l46 0 -19
-50 c-10 -27 -22 -84 -27 -127 l-8 -78 -94 95 c-106 105 -160 189 -191 293
-18 60 -19 80 -11 155 11 100 0 151 -35 167 -12 5 -28 22 -34 38 -13 32 -38
48 -92 57 -39 8 -47 1 -23 -19 23 -19 37 -68 21 -75 -7 -2 -16 1 -18 8 -6 16
-145 86 -170 86 -16 0 -15 -4 7 -37 l26 -37 -22 -23 c-16 -17 -19 -29 -14 -54
6 -30 5 -31 -11 -17 -10 9 -38 18 -63 21 -25 3 -58 9 -75 12 -20 4 -37 1 -50
-9 -20 -16 -20 -16 4 -34 18 -15 24 -30 26 -66 1 -41 7 -53 51 -98 47 -48 48
-49 15 -33 -24 12 -36 14 -44 6 -17 -17 -33 -13 -65 14 -17 14 -33 25 -37 25
-14 0 2 -100 19 -118 9 -10 16 -28 16 -40 0 -29 45 -79 79 -87 15 -3 41 -20
57 -36 16 -17 55 -44 87 -60 50 -25 62 -37 79 -77 12 -26 23 -67 26 -92 6 -63
-28 -94 -122 -114 -96 -20 -155 -66 -104 -81 13 -4 64 -26 113 -48 50 -23 117
-48 149 -57 l59 -17 -48 -36 c-28 -22 -77 -46 -116 -57 -38 -12 -81 -31 -96
-45 l-28 -23 30 -7 c54 -12 118 -38 203 -82 65 -34 93 -43 132 -43 80 0 64
-21 -73 -98 l-89 -49 164 -13 c127 -10 178 -11 232 -1 l68 11 43 -39 c68 -63
113 -81 198 -81 82 0 155 18 239 61 32 16 61 29 66 29 5 0 21 -17 35 -39 14
-21 50 -65 80 -97 86 -93 91 -108 84 -244 -14 -250 -50 -430 -128 -630 -42
-110 -73 -142 -198 -204 -112 -57 -133 -73 -151 -120 -15 -40 -15 -123 0 -141
11 -13 15 -12 32 10 11 14 27 25 36 25 14 0 17 -10 17 -50 0 -34 6 -55 18 -67
13 -13 17 -14 17 -3 0 7 9 24 21 36 30 32 72 14 94 -40 l16 -41 16 32 c8 18
21 34 27 34 53 5 86 2 86 -8 0 -14 27 -43 40 -43 5 0 16 14 25 30 12 24 22 30
48 30 39 0 147 43 163 65 6 8 15 34 18 58 9 53 28 82 66 102 55 29 75 2 82
-110 l3 -40 27 45 c36 60 51 131 42 205 -6 55 -5 59 10 45 10 -7 26 -30 36
-49 19 -38 87 -121 98 -121 4 0 7 73 7 163 0 158 0 162 16 127 9 -20 31 -49
50 -64 l34 -29 9 94 c12 127 13 217 2 259 l-8 35 33 -31 c46 -43 71 -54 118
-54 43 0 51 9 25 31 -27 22 -52 83 -65 155 -12 69 -36 129 -70 172 -18 24 -18
24 23 82 40 57 40 60 30 101 -6 24 -10 44 -9 46 2 1 33 -7 69 -18 79 -23 102
-52 114 -139 l7 -55 20 45 c12 27 22 76 25 123 2 42 6 77 8 77 1 0 15 -5 31
-11 15 -6 65 -17 111 -25 46 -8 109 -23 142 -33 l59 -18 -59 80 c-33 44 -58
82 -57 83 1 2 23 -2 47 -7 25 -6 64 -9 87 -6 l42 4 16 -52 c8 -30 39 -86 72
-131 189 -263 219 -326 189 -397 -24 -58 -147 -137 -369 -239 -153 -70 -189
-94 -206 -140 -7 -18 -21 -51 -32 -74 -19 -41 -25 -85 -13 -97 4 -3 18 3 32
13 37 30 62 26 62 -8 0 -16 6 -36 13 -46 12 -16 14 -15 36 8 36 39 58 34 66
-14 4 -22 9 -40 12 -40 2 0 19 11 36 24 27 20 40 24 75 19 26 -4 42 -11 42
-19 0 -8 5 -23 12 -33 11 -18 13 -17 33 13 16 23 28 30 46 28 95 -10 137 10
196 96 20 28 40 52 44 52 13 0 21 -56 13 -94 -3 -20 -2 -36 3 -36 14 0 74 46
91 71 15 22 16 22 23 3 13 -33 10 -71 -11 -118 -18 -44 -18 -46 -1 -37 33 18
136 136 155 179 10 23 22 42 26 42 3 0 15 -21 26 -46 l19 -47 49 109 c44 97
50 117 50 179 1 46 -5 81 -15 101 -10 20 -13 37 -8 45 21 33 8 83 -41 168 -27
47 -57 108 -66 135 -20 57 -15 139 11 204 l17 42 28 -38 c55 -77 116 -115 258
-162 164 -53 230 -108 270 -222 51 -144 69 -368 36 -446 -27 -65 -92 -118
-165 -135 -40 -10 -77 -44 -85 -80 -3 -17 -13 -41 -20 -52 -16 -22 -18 -63 -5
-83 6 -11 14 -8 34 12 16 16 37 26 55 26 25 0 29 -3 25 -24 -3 -13 0 -34 7
-46 l11 -21 27 26 c20 20 34 25 61 23 30 -2 36 -7 37 -26 2 -40 21 -49 47 -23
18 16 39 23 80 25 50 3 58 1 72 -20 15 -24 45 -33 45 -15 0 6 21 13 48 17 82
12 132 84 132 191 0 47 10 77 39 113 l20 25 23 -21 c30 -28 74 -49 116 -57
l34 -7 -21 34 c-15 24 -21 50 -21 97 0 42 -7 79 -20 108 -11 24 -18 46 -16 49
3 2 31 -20 63 -50 32 -31 69 -61 82 -68 23 -12 23 -11 17 27 -3 21 -8 79 -12
128 -7 103 -22 143 -69 184 -58 50 -18 56 77 11 70 -33 109 -38 132 -14 23 22
20 31 -13 37 -25 5 -36 19 -72 92 -46 93 -77 123 -136 131 -21 3 -66 10 -101
16 l-63 11 7 41 c19 98 0 140 -66 149 -98 13 -232 102 -272 180 -21 42 -37
165 -38 297 0 41 -7 108 -14 148 -11 65 -11 72 3 66 90 -37 168 -43 252 -18
l54 17 -50 14 c-27 8 -59 23 -70 34 -18 18 -17 18 33 -1 71 -27 196 -27 313 1
49 11 89 22 89 24 0 2 -29 17 -64 33 -36 17 -81 41 -101 55 l-37 25 29 5 c15
3 54 9 86 12 32 4 104 18 159 31 l100 24 72 -20 c177 -50 178 -50 239 -109
l60 -56 -5 101 c-5 110 -32 187 -80 233 l-25 24 49 81 c63 105 82 170 75 255
-9 120 -59 223 -155 317 -101 99 -227 154 -397 174 -193 23 -373 -5 -910 -140
-558 -140 -748 -168 -923 -137 -275 51 -405 248 -245 375 118 92 347 152 582
152 170 0 270 -22 477 -105 92 -37 203 -74 246 -83 70 -14 86 -14 155 0 43 9
141 39 218 66 163 59 218 69 310 53 37 -7 69 -10 71 -8 2 1 -6 22 -18 45 -28
58 -90 100 -202 136 -16 6 -15 8 10 28 16 12 54 45 85 73 74 67 112 84 237
105 110 19 210 60 249 102 12 13 29 40 37 60 l15 36 -52 -21 c-79 -31 -217
-29 -322 5 -108 35 -153 40 -233 28 -70 -11 -194 -64 -249 -106 -17 -13 -33
-24 -36 -24 -2 0 4 31 14 70 17 67 37 240 27 240 -3 0 -17 -29 -33 -65z m-878
-547 c-2 -7 2 -21 11 -30 14 -17 9 -17 -79 -11 -241 15 -560 -65 -678 -172
-61 -55 -85 -107 -78 -168 16 -128 138 -231 326 -273 58 -13 105 -15 215 -11
180 7 293 28 706 133 475 120 594 144 775 151 259 10 408 -37 541 -172 79 -80
118 -150 132 -241 18 -106 -7 -187 -95 -317 -46 -66 -81 -95 -176 -143 -168
-85 -405 -119 -764 -109 -134 4 -243 4 -243 1 0 -4 18 -50 41 -103 54 -126 68
-202 79 -408 10 -188 16 -220 59 -286 43 -69 209 -169 279 -169 46 0 54 -54
20 -128 -21 -46 -21 -50 -10 -272 7 -124 17 -268 23 -321 l12 -97 -33 -40
c-27 -35 -33 -52 -41 -123 -5 -46 -18 -97 -27 -114 -18 -31 -52 -46 -52 -24 0
21 -32 49 -57 49 -22 0 -21 3 18 40 23 22 40 43 36 46 -7 8 -88 -38 -106 -60
-7 -8 -16 -27 -20 -43 -9 -35 -46 -44 -56 -14 -3 12 -19 24 -37 29 l-30 8 46
54 c25 29 44 55 42 58 -8 8 -65 -28 -89 -57 -14 -17 -28 -44 -32 -61 -8 -35
-40 -42 -50 -11 -3 11 -15 23 -26 26 -21 7 -25 20 -9 30 5 3 15 15 20 26 16
28 -11 25 -49 -7 -29 -24 -31 -24 -56 -8 -14 9 -25 20 -25 24 0 4 28 17 63 30
124 45 197 152 197 289 0 86 -26 241 -56 331 -45 136 -140 216 -319 269 -100
29 -172 76 -216 139 -30 42 -43 77 -64 170 -15 64 -35 135 -45 157 -10 22 -21
51 -25 65 -12 40 -65 142 -94 179 -26 34 -96 91 -112 91 -5 0 12 -21 36 -46
43 -44 145 -228 133 -239 -3 -3 -23 1 -44 9 -112 44 -228 55 -384 35 -289 -36
-478 -76 -834 -177 -16 -4 -17 -1 -12 29 l7 34 -25 -28 c-33 -35 -34 -91 -6
-212 11 -47 20 -90 20 -94 0 -5 -27 -44 -59 -88 -165 -218 -354 -578 -436
-831 -9 -29 -23 -56 -31 -59 -13 -5 -37 -62 -48 -115 -5 -20 -19 -33 -59 -51
l-52 -24 -25 22 c-14 13 -36 25 -50 27 -22 3 -17 9 47 53 79 54 75 70 -6 34
-59 -25 -111 -79 -111 -114 0 -32 -18 -32 -30 0 -5 14 -20 29 -32 34 -20 7
-17 11 34 44 97 62 84 79 -20 27 -51 -26 -64 -39 -83 -78 l-23 -46 -13 32 c-7
18 -24 38 -38 44 l-25 11 40 29 c65 48 45 61 -34 21 -26 -14 -30 -13 -38 2 -6
9 -19 20 -31 24 -18 7 -1 18 101 70 102 53 127 70 152 106 38 56 65 116 100
230 49 156 60 210 81 403 18 173 34 252 49 252 4 0 12 -12 19 -27 7 -15 26
-44 43 -66 l31 -39 22 76 c12 42 37 99 55 128 18 29 56 91 84 137 l51 83 7
-43 c12 -68 60 -121 123 -135 l30 -7 -21 24 c-46 52 -53 86 -30 151 12 34 127
247 164 306 l15 23 24 -36 c22 -32 111 -100 120 -91 2 1 -4 22 -12 46 -31 87
-18 136 56 219 53 59 102 144 114 199 6 30 9 32 53 32 55 0 127 18 195 48 41
18 56 20 97 12 88 -17 253 -22 330 -12 41 6 123 27 182 47 122 40 211 46 344
20 407 -78 880 -122 1107 -104 294 24 475 166 485 381 4 66 0 85 -22 133 -83
182 -364 293 -606 240 -291 -63 -1233 -265 -1301 -278 -106 -21 -251 -22 -342
-2 -147 31 -300 140 -348 247 -49 109 -24 255 59 349 87 99 273 150 607 168
232 12 227 12 222 -1z m-1891 -321 c24 -76 28 -78 35 -17 5 52 6 53 13 23 10
-38 11 -38 59 -18 47 19 50 19 42 -5 -5 -15 0 -21 20 -26 14 -3 43 -26 64 -50
46 -52 77 -152 86 -279 6 -76 22 -175 32 -202 3 -7 -10 -14 -34 -18 -56 -10
-194 -47 -190 -51 2 -2 43 3 91 12 99 19 106 16 106 -43 l0 -32 -92 4 -93 4
75 -10 c124 -17 121 -16 114 -47 -4 -15 -16 -39 -26 -54 -18 -26 -21 -27 -47
-13 -37 18 -134 55 -138 52 -1 -2 33 -21 77 -42 l79 -38 -53 -76 c-100 -143
-116 -178 -116 -262 0 -69 -11 -113 -22 -93 -3 5 -11 34 -18 64 -14 60 -18 57
-39 -33 -14 -60 -32 -87 -72 -111 l-31 -18 5 28 c7 32 -12 95 -29 101 -6 2
-16 -8 -24 -22 -22 -41 -33 -30 -27 25 l6 51 -30 -22 c-17 -12 -39 -40 -48
-62 l-18 -41 -11 33 c-7 19 -12 55 -12 80 0 31 -22 113 -65 241 -36 106 -64
194 -62 195 1 2 16 10 32 19 17 10 21 14 10 11 -50 -18 -55 -17 -55 1 -1 16
-5 14 -25 -11 l-25 -30 0 50 c0 76 5 79 102 73 l83 -5 -50 13 c-27 8 -67 14
-87 14 -23 0 -38 5 -38 12 0 9 -3 9 -12 0 -7 -7 -21 -12 -31 -12 -17 0 -19 5
-13 42 4 23 8 44 10 45 2 2 46 -12 97 -30 138 -51 142 -51 54 -7 -44 21 -95
42 -113 46 -25 5 -32 11 -28 23 3 9 24 72 47 141 70 214 89 257 130 304 64 73
108 79 178 24 31 -24 35 -18 17 26 -8 20 -11 36 -5 36 11 0 47 -35 67 -66 10
-16 12 -8 9 53 -3 84 11 84 39 0z m-554 58 c9 -4 -1 -21 -34 -56 -26 -28 -50
-59 -53 -70 -9 -27 -23 -24 -31 6 -18 74 52 145 118 120z m1047 -101 c12 -15
21 -41 21 -60 l0 -34 -61 47 c-55 43 -59 48 -43 60 28 21 61 15 83 -13z
m-1709 -71 c0 -14 -6 -23 -15 -23 -8 0 -15 8 -15 18 0 9 -3 28 -7 42 -6 25 -6
25 15 6 12 -11 22 -30 22 -43z m-172 16 c-6 -17 -22 -12 -30 10 -7 19 -5 20
13 11 11 -6 19 -16 17 -21z m51 -96 c1 -17 10 -53 22 -79 16 -38 22 -45 30
-34 5 8 9 29 8 45 -3 85 -1 91 34 92 17 1 41 3 52 5 19 3 20 -2 17 -107 -3
-82 0 -126 13 -170 36 -127 136 -273 250 -366 36 -29 65 -58 65 -65 0 -22 -60
-64 -116 -80 -31 -9 -54 -18 -52 -20 15 -14 138 -20 183 -9 27 8 50 13 51 12
1 -1 6 -36 13 -77 16 -100 48 -167 100 -210 116 -95 175 -174 188 -255 9 -59
-12 -90 -95 -141 -67 -40 -81 -45 -115 -40 -105 17 -141 61 -372 461 -321 554
-317 548 -377 576 -29 13 -68 40 -87 59 -19 19 -50 40 -69 45 -44 13 -62 38
-44 63 7 9 15 25 18 35 8 21 14 21 59 0 32 -15 37 -16 51 -1 23 23 10 53 -49
115 -27 29 -48 55 -46 56 2 2 16 11 32 20 15 10 27 26 27 37 0 33 19 23 50
-27 50 -83 79 -123 90 -123 14 0 4 118 -14 162 -23 54 -21 68 12 68 15 0 34 5
42 10 18 11 28 -9 29 -57z m-268 0 c16 -10 28 -22 26 -27 -7 -20 -24 -15 -45
14 -26 34 -22 37 19 13z m-44 -248 c1 0 -2 -7 -6 -14 -7 -11 -13 -9 -30 8 -30
30 -26 45 7 24 15 -9 28 -17 29 -18z m2017 -187 c10 -39 7 -42 -19 -18 -25 23
-25 40 -1 40 8 0 16 -10 20 -22z m-844 -35 c0 -5 -5 -15 -10 -23 -8 -12 -10
-11 -10 8 0 12 5 22 10 22 6 0 10 -3 10 -7z m2167 -907 c37 -8 94 -24 125 -36
l56 -22 20 -77 c48 -179 48 -181 16 -257 -23 -56 -29 -83 -28 -142 0 -70 3
-79 64 -196 34 -68 61 -127 59 -133 -4 -10 -93 -88 -355 -308 -46 -38 -96 -88
-112 -111 -36 -49 -78 -84 -102 -84 -10 0 -23 13 -30 30 -7 16 -21 32 -32 36
-18 5 -16 11 26 51 26 25 45 47 42 50 -7 8 -87 -41 -113 -69 -12 -12 -26 -35
-32 -50 -13 -36 -48 -38 -61 -4 -5 13 -14 27 -20 31 -7 4 3 19 27 41 21 18 32
33 25 34 -26 0 -79 -28 -103 -57 l-25 -30 -11 23 c-9 19 -7 26 8 40 11 9 19
21 19 25 0 10 -58 -7 -76 -22 -11 -9 -18 -6 -35 15 -11 14 -28 26 -37 26 -40
0 51 62 174 118 147 66 276 140 336 191 109 94 86 203 -93 446 -111 150 -141
219 -107 253 8 8 8 12 1 12 -8 0 -8 12 0 41 l10 41 86 -6 c47 -4 106 -9 131
-12 l45 -5 -62 59 c-35 33 -60 62 -56 66 12 11 150 6 220 -8z m-2057 -14 c0
-11 -11 -24 -25 -30 l-25 -12 22 30 c26 35 28 36 28 12z m1626 -72 c22 0 24
-3 18 -27 -11 -45 -20 -47 -48 -10 -30 39 -33 52 -10 43 9 -3 27 -6 40 -6z
m-246 -1169 c0 -12 -13 -22 -37 -29 -20 -6 -39 -10 -40 -8 -2 2 8 17 22 34 27
32 55 34 55 3z m90 -54 c0 -11 -59 -41 -67 -34 -1 2 4 13 13 25 16 24 54 30
54 9z m100 -32 c0 -8 -14 -22 -31 -30 -31 -16 -31 -16 -23 7 13 41 54 58 54
23z m168 -3 c2 -6 -11 -18 -27 -27 -27 -13 -31 -13 -31 -1 0 34 48 57 58 28z
m-1918 -104 c0 -15 -11 -29 -30 -40 l-30 -17 0 27 c0 32 16 52 42 52 12 0 18
-7 18 -22z m2917 -41 c-2 -6 -20 -16 -40 -23 -39 -14 -41 -9 -10 27 15 18 56
14 50 -4z m-2837 -32 c7 -9 11 -17 9 -18 -2 -2 -16 -11 -31 -20 -25 -16 -28
-16 -28 -2 0 21 18 55 29 55 5 0 14 -7 21 -15z m2934 -4 c5 -8 -42 -47 -49
-39 -1 2 1 13 6 26 8 22 33 30 43 13z m-2788 -22 c3 -6 -6 -22 -22 -34 -22
-17 -30 -20 -32 -10 -8 35 36 72 54 44z m2941 -4 c1 -5 -11 -18 -27 -27 -31
-18 -37 -10 -19 23 10 20 40 23 46 4z m173 3 c0 -14 -30 -48 -42 -48 -16 0 -8
49 10 53 29 8 32 7 32 -5z m-2968 -6 c14 -6 13 -11 -13 -40 l-29 -32 0 33 c0
46 7 53 42 39z"/>
<path d="M1790 4223 c-34 -16 -34 -17 -9 -20 18 -3 29 -13 37 -37 17 -46 62
-65 97 -42 24 16 25 15 25 -2 0 -10 -20 -54 -45 -98 -25 -43 -45 -87 -45 -97
0 -26 48 -67 78 -67 14 0 36 -10 48 -21 27 -26 68 -28 93 -5 10 9 41 23 70 32
29 8 55 22 58 30 3 8 -2 43 -11 79 -9 35 -16 81 -16 101 0 31 3 35 18 28 47
-22 122 5 122 44 0 10 8 13 30 10 43 -6 47 8 8 32 -44 27 -83 25 -143 -8 -69
-37 -78 -60 -59 -147 8 -39 18 -85 21 -102 l6 -33 -34 17 c-24 12 -68 18 -146
21 l-112 4 21 42 c11 22 29 53 39 68 11 14 19 37 19 50 0 12 4 29 9 37 10 15
-32 57 -86 85 -39 20 -49 20 -93 -1z m73 -43 c-6 -22 13 -35 32 -20 8 7 15 7
19 1 9 -14 -29 -32 -49 -25 -18 7 -38 51 -30 64 10 16 33 -1 28 -20z m418 -32
c-8 -24 -48 -35 -79 -23 -11 4 -12 9 -4 17 8 8 15 8 26 -1 17 -14 36 -7 36 15
0 8 7 14 15 14 11 0 12 -6 6 -22z"/>
<path d="M1935 3770 c-28 -11 -66 -32 -84 -48 -34 -28 -34 -28 -23 -78 6 -27
19 -89 28 -137 9 -49 25 -98 35 -110 17 -22 18 -22 65 -4 l47 17 52 -26 c29
-15 59 -24 68 -21 21 8 75 144 89 227 l12 72 -29 25 c-55 44 -144 94 -177 99
-19 2 -54 -4 -83 -16z m-25 -87 l-1 -58 -31 34 -31 35 27 23 c15 13 29 23 32
23 2 0 4 -26 4 -57z m260 0 c0 -12 -43 -53 -56 -53 -9 0 -9 10 3 40 14 34 18
38 34 29 11 -5 19 -13 19 -16z m-226 -265 c-8 -12 -44 -10 -44 3 0 7 5 29 12
51 l12 40 12 -43 c7 -23 11 -46 8 -51z m171 18 c13 -43 13 -46 -5 -46 -27 0
-33 15 -25 61 8 48 12 46 30 -15z"/>
</g>
</svg>
