<?xml version="1.0" standalone="no"?>
<!DOCTYPE svg PUBLIC "-//W3C//DTD SVG 20010904//EN"
 "http://www.w3.org/TR/2001/REC-SVG-20010904/DTD/svg10.dtd">
<svg version="1.0" xmlns="http://www.w3.org/2000/svg"
 width="220.000000pt" height="300.000000pt" viewBox="0 0 220.000000 300.000000"
 preserveAspectRatio="xMidYMid meet">

<g transform="translate(0.000000,300.000000) scale(0.100000,-0.100000)"
fill="#000000" stroke="none">
<path d="M3 2078 c3 -906 4 -925 25 -1019 33 -147 59 -224 112 -334 152 -317
449 -559 847 -691 l112 -37 113 37 c402 130 706 381 857 708 46 99 75 188 103
318 21 92 22 125 25 1018 l4 922 -1101 0 -1101 0 4 -922z m2112 -3 c0 -766 -2
-850 -18 -950 -81 -488 -369 -818 -874 -1001 -52 -19 -107 -34 -123 -34 -40 0
-187 53 -305 110 -145 70 -247 142 -356 250 -181 178 -280 370 -335 650 -15
75 -18 188 -21 939 -2 469 -2 860 1 867 5 12 167 14 1018 12 l1013 -3 0 -840z"/>
<path d="M630 2605 c0 -218 -6 -251 -49 -289 -14 -13 -41 -21 -79 -24 -48 -3
-63 0 -92 20 -52 35 -59 67 -59 291 l-1 197 -71 0 -70 0 3 -233 3 -234 30 -49
c24 -37 45 -56 90 -79 53 -27 68 -30 154 -30 77 0 105 4 141 21 57 27 97 67
124 124 19 41 21 63 21 265 l0 220 -72 3 -73 3 0 -206z"/>
<path d="M1653 2791 c-73 -25 -136 -80 -170 -149 -25 -50 -28 -68 -28 -152 0
-75 4 -104 21 -141 31 -66 78 -114 142 -146 52 -25 67 -28 162 -28 89 0 113 4
158 24 l53 24 -6 41 c-12 79 -9 76 -73 50 -94 -39 -196 -31 -251 19 -82 76
-80 259 3 325 64 50 157 54 245 10 l50 -24 10 60 c12 69 13 68 -63 91 -68 20
-188 19 -253 -4z"/>
<path d="M900 2491 l0 -311 130 0 c145 0 214 11 261 43 58 39 74 71 74 144 0
61 -2 66 -36 97 -20 18 -42 36 -50 39 -11 5 -10 9 5 21 36 29 56 70 56 116 0
59 -28 103 -82 132 -38 20 -60 23 -200 26 l-158 4 0 -311z m270 196 c13 -7 29
-24 34 -39 19 -53 -41 -98 -131 -98 l-33 0 0 75 0 75 53 0 c28 0 63 -6 77 -13z
m21 -252 c48 -26 52 -100 6 -130 -13 -8 -51 -16 -88 -17 l-64 -3 -3 74 c-4
103 -3 105 64 97 31 -3 69 -13 85 -21z"/>
<path d="M425 2094 c-11 -3 -53 -16 -93 -30 -40 -13 -83 -24 -97 -24 -24 0
-25 -2 -25 -70 0 -67 1 -70 24 -70 13 0 66 14 117 31 83 28 103 31 174 26 48
-3 109 -16 152 -31 95 -34 154 -33 270 4 61 20 114 30 153 30 39 0 92 -10 153
-30 116 -37 175 -38 270 -4 43 15 104 28 152 31 71 5 91 2 174 -26 51 -17 104
-31 117 -31 23 0 24 3 24 70 0 62 -2 70 -19 70 -10 0 -63 14 -117 31 -87 27
-109 30 -179 26 -49 -3 -108 -15 -152 -31 -93 -33 -157 -33 -248 0 -43 15
-101 27 -150 30 -70 5 -92 2 -179 -25 -120 -38 -162 -39 -263 -5 -75 24 -213
39 -258 28z"/>
<path d="M433 1849 c-28 -5 -74 -18 -102 -29 -29 -11 -67 -20 -86 -20 l-35 0
0 -75 0 -76 38 7 c20 4 69 18 107 32 103 36 196 34 313 -7 50 -17 108 -31 131
-31 58 0 199 46 205 68 7 26 18 132 13 132 -2 0 -37 -11 -77 -25 -95 -32 -174
-33 -271 -1 -90 29 -167 37 -236 25z"/>
<path d="M1042 1458 c-30 -216 -55 -399 -58 -407 -2 -7 -86 123 -185 290 -178
299 -208 345 -195 304 19 -65 154 -660 150 -664 -3 -3 -60 49 -127 115 -201
197 -280 270 -274 254 3 -8 50 -123 105 -255 55 -132 98 -242 97 -243 -2 -2
-76 51 -165 118 -89 67 -163 120 -166 118 -6 -6 61 -168 108 -262 140 -280
336 -446 680 -576 l88 -33 87 32 c348 131 556 308 688 586 45 95 106 248 101
253 -3 2 -77 -51 -166 -118 -89 -67 -163 -120 -165 -118 -1 1 42 111 97 243
55 132 102 247 105 255 6 16 -73 -57 -274 -254 -67 -66 -124 -118 -127 -115
-4 4 131 599 150 664 13 41 -17 -5 -195 -304 -99 -167 -183 -297 -185 -290 -3
8 -28 191 -58 407 -29 215 -55 392 -58 392 -3 0 -29 -177 -58 -392z"/>
<path d="M1520 1819 c-108 -35 -146 -34 -260 2 -38 13 -72 20 -76 17 -3 -4 -2
-35 3 -69 l8 -63 60 -24 c86 -35 185 -35 287 1 108 38 197 37 318 -3 131 -44
130 -44 130 39 l0 69 -32 7 c-18 4 -68 18 -111 31 -110 34 -203 32 -327 -7z"/>
<path d="M425 1603 c-11 -2 -52 -15 -92 -29 -39 -13 -83 -24 -97 -24 -25 0
-26 -1 -26 -70 l0 -70 30 0 c16 0 60 12 97 27 53 20 86 26 151 27 45 1 82 5
82 9 0 4 -7 37 -16 72 l-16 65 -47 -1 c-25 -1 -55 -3 -66 -6z"/>
<path d="M1655 1588 c-11 -35 -25 -95 -25 -110 0 -16 10 -18 74 -18 54 0 94
-7 143 -24 37 -14 85 -28 106 -31 l37 -7 0 71 c0 69 -1 71 -27 76 -16 3 -64
17 -109 30 -87 27 -192 34 -199 13z"/>
<path d="M920 1569 c-30 -11 -79 -21 -107 -22 -29 -1 -53 -3 -53 -4 0 -11 77
-126 88 -130 8 -3 38 2 68 11 43 14 54 21 55 39 0 12 4 46 8 75 4 28 5 52 2
51 -3 0 -31 -9 -61 -20z"/>
<path d="M1221 1538 c4 -29 8 -62 8 -74 1 -16 13 -25 52 -37 28 -10 57 -17 64
-17 7 0 31 30 54 68 l41 67 -68 7 c-37 3 -84 13 -104 22 -21 9 -41 16 -46 16
-5 0 -5 -24 -1 -52z"/>
</g>
</svg>
