<?xml version="1.0" standalone="no"?>
<!DOCTYPE svg PUBLIC "-//W3C//DTD SVG 20010904//EN"
 "http://www.w3.org/TR/2001/REC-SVG-20010904/DTD/svg10.dtd">
<svg version="1.0" xmlns="http://www.w3.org/2000/svg"
 width="324.000000pt" height="155.000000pt" viewBox="0 0 324.000000 155.000000"
 preserveAspectRatio="xMidYMid meet">

<g transform="translate(0.000000,155.000000) scale(0.100000,-0.100000)"
fill="#000000" stroke="none">
<path d="M2277 1511 c-99 -50 -155 -122 -229 -292 -87 -199 -202 -561 -249
-782 -14 -67 -29 -110 -43 -125 -11 -13 -65 -46 -119 -73 -124 -62 -177 -66
-231 -19 -47 42 -62 106 -46 197 21 124 86 246 148 281 49 27 82 28 116 1 20
-16 26 -29 26 -61 l0 -40 -31 26 c-17 14 -38 26 -48 26 -29 0 -60 -29 -67 -64
-7 -43 7 -70 45 -86 64 -26 148 17 171 86 17 50 8 139 -16 171 -43 57 -69 68
-162 68 -77 0 -95 -4 -153 -31 -82 -39 -141 -91 -191 -168 -45 -69 -66 -133
-77 -233 -10 -83 -41 -135 -106 -177 -111 -73 -159 14 -120 219 21 115 86 375
181 726 40 151 74 284 74 296 0 37 -36 58 -98 57 -67 0 -116 -22 -136 -62 -16
-32 -129 -449 -186 -687 -73 -306 -134 -460 -209 -528 -62 -56 -130 -47 -158
20 -30 73 -14 151 144 708 40 139 46 173 47 261 1 93 -1 105 -29 159 -23 46
-42 66 -79 90 -44 27 -57 30 -125 29 -104 -1 -177 -30 -231 -91 -83 -94 -96
-271 -20 -281 33 -5 50 22 50 77 1 130 107 203 181 125 42 -45 33 -130 -45
-401 -83 -289 -134 -505 -142 -603 -8 -91 14 -187 53 -238 73 -96 262 -100
370 -7 22 18 55 62 73 97 l34 63 12 -49 c17 -67 62 -135 104 -158 46 -25 128
-20 195 12 28 13 81 54 118 91 67 65 69 66 78 42 5 -13 9 -27 9 -30 0 -3 11
-21 25 -39 105 -138 353 -117 537 45 25 23 48 41 51 41 3 0 9 -15 12 -33 13
-58 46 -106 90 -127 109 -53 305 5 410 122 20 22 37 38 38 36 1 -1 11 -21 22
-43 40 -78 110 -134 170 -135 69 0 174 71 213 145 l15 30 14 -62 c27 -120 113
-148 251 -80 117 57 233 178 217 227 -11 35 -56 25 -130 -30 -86 -62 -122 -71
-148 -39 -26 32 -20 54 77 302 99 251 104 269 82 302 -13 20 -25 25 -57 25
-74 0 -142 -50 -165 -123 l-9 -28 -35 53 c-89 134 -232 128 -376 -16 -95 -96
-152 -214 -169 -350 -7 -51 -12 -60 -54 -96 -58 -51 -136 -90 -176 -90 -53 0
-75 34 -75 116 0 115 23 189 78 252 142 164 252 321 339 482 138 254 166 418
80 470 -44 27 -158 28 -210 1z m184 -147 c23 -62 -79 -278 -224 -474 -50 -69
-100 -137 -110 -150 l-18 -25 6 40 c22 143 184 527 253 598 44 45 78 49 93 11z
m328 -668 c44 -47 40 -96 -23 -257 -66 -167 -94 -213 -140 -236 -71 -33 -121
10 -118 104 4 152 91 336 187 395 41 24 67 23 94 -6z"/>
</g>
</svg>
