<?xml version="1.0" standalone="no"?>
<!DOCTYPE svg PUBLIC "-//W3C//DTD SVG 20010904//EN"
 "http://www.w3.org/TR/2001/REC-SVG-20010904/DTD/svg10.dtd">
<svg version="1.0" xmlns="http://www.w3.org/2000/svg"
 width="1726.000000pt" height="2048.000000pt" viewBox="0 0 1726.000000 2048.000000"
 preserveAspectRatio="xMidYMid meet">

<g transform="translate(0.000000,2048.000000) scale(0.100000,-0.100000)"
fill="#000000" stroke="none">
<path d="M8145 20474 c-38 -2 -187 -8 -330 -14 -1523 -63 -4066 -320 -6045
-611 -566 -83 -1326 -218 -1730 -307 l-35 -8 -3 -5244 c-4 -7338 14 -10174 68
-10626 12 -92 38 -164 108 -299 178 -338 537 -753 904 -1047 313 -251 954
-646 1438 -887 209 -104 352 -162 366 -149 12 13 -43 91 -209 299 -91 114
-187 240 -215 282 -186 275 -329 667 -436 1197 -57 284 -76 498 -98 1135 -10
281 -12 1593 -10 5995 1 3099 6 6200 10 6890 l7 1254 255 84 c344 112 524 166
925 277 1788 494 3051 748 4250 855 495 44 1254 62 1740 41 1046 -45 2156
-204 3494 -501 589 -130 1532 -381 2236 -595 266 -81 380 -122 411 -149 72
-62 89 -333 105 -1721 14 -1244 6 -11395 -9 -11850 -45 -1290 -103 -1637 -322
-1900 -87 -105 -345 -367 -433 -441 -606 -510 -1824 -1175 -2841 -1553 -353
-132 -527 -183 -751 -220 -374 -62 -836 -72 -1078 -23 -224 46 -277 119 -299
415 -26 331 26 618 161 902 102 214 224 396 517 775 393 507 447 633 534 1235
68 475 116 1081 152 1910 17 394 17 1905 0 2250 -38 766 -75 1139 -161 1620
-72 398 -209 1209 -321 1900 -332 2046 -361 2176 -1001 4580 -88 330 -189 699
-224 820 -351 1209 -753 2017 -982 1973 -52 -10 -191 -252 -322 -561 -507
-1199 -681 -2321 -911 -5877 -42 -653 -79 -1269 -165 -2775 -119 -2067 -196
-3333 -215 -3550 -20 -224 -8 -305 44 -305 49 0 79 62 105 216 56 332 202
1439 396 3009 715 5779 1017 7965 1118 8093 5 6 18 12 29 12 56 0 106 -236
238 -1120 133 -894 260 -1580 424 -2301 283 -1243 449 -2546 586 -4594 48
-719 84 -1402 200 -3790 81 -1665 86 -2001 35 -2221 -16 -71 -136 -357 -222
-532 -134 -271 -376 -584 -573 -740 -123 -98 -256 -234 -298 -303 -48 -82 -64
-174 -63 -364 1 -88 8 -212 17 -275 8 -63 19 -241 24 -396 8 -266 22 -466 38
-544 13 -60 31 -64 339 -68 1226 -18 2714 261 4123 773 483 175 848 330 1390
587 255 121 727 374 1020 546 637 374 1047 737 1306 1154 77 125 178 336 203
426 46 168 65 457 83 1327 18 827 18 12040 0 13145 -17 1028 -34 1451 -62
1526 -6 15 -23 27 -47 34 -226 64 -2046 352 -3213 509 -1303 176 -3040 329
-4530 401 -216 11 -1115 21 -1245 14z"/>
</g>
</svg>
