<?xml version="1.0" standalone="no"?>
<!DOCTYPE svg PUBLIC "-//W3C//DTD SVG 20010904//EN"
 "http://www.w3.org/TR/2001/REC-SVG-20010904/DTD/svg10.dtd">
<svg version="1.0" xmlns="http://www.w3.org/2000/svg"
 width="770.000000pt" height="1024.000000pt" viewBox="0 0 770.000000 1024.000000"
 preserveAspectRatio="xMidYMid meet">

<g transform="translate(0.000000,1024.000000) scale(0.100000,-0.100000)"
fill="#000000" stroke="none">
<path d="M1642 6328 l3 -2303 39 -75 c26 -51 61 -97 110 -145 l71 -70 975
-459 c706 -332 985 -459 1010 -459 25 0 282 117 925 420 490 231 933 441 986
466 81 39 107 58 161 116 35 38 80 100 99 137 l34 68 3 2303 2 2303 -2210 0
-2210 0 2 -2302z m2043 2088 c26 -8 74 -31 105 -50 l58 -36 58 35 c135 82 219
83 399 10 112 -46 126 -49 203 -49 l82 1 0 -293 0 -294 -26 -6 c-57 -15 -162
4 -260 46 -53 22 -118 45 -145 50 -82 16 -176 -9 -264 -70 l-45 -31 -45 31
c-88 61 -182 86 -265 70 -27 -5 -93 -28 -146 -50 -98 -42 -201 -60 -258 -46
l-26 6 0 294 0 293 83 -1 c75 0 91 3 197 46 63 25 122 48 130 51 30 11 118 7
165 -7z m-633 -403 l3 -328 795 0 795 0 3 328 2 327 30 0 30 0 0 -83 0 -84 50
-27 c28 -15 50 -31 50 -36 0 -5 -22 -21 -50 -36 l-50 -27 0 -72 0 -72 40 -18
c67 -30 69 -40 11 -76 l-51 -32 0 -78 0 -79 -860 0 -860 0 0 79 0 78 -51 32
c-58 36 -56 46 11 76 l40 18 0 72 0 72 -50 27 c-27 15 -50 31 -50 36 0 5 23
21 50 36 l50 27 0 84 0 83 30 0 30 0 2 -327z m-22 -1298 l0 -695 -645 0 -645
0 0 695 0 695 645 0 645 0 0 -695z m2930 0 l0 -695 -645 0 -645 0 0 695 0 695
645 0 645 0 0 -695z m-2080 320 c12 -30 24 -55 25 -55 2 0 28 10 59 21 31 12
59 20 62 17 2 -3 -6 -31 -20 -61 l-25 -56 60 -22 c32 -12 59 -25 59 -30 0 -4
-23 -16 -51 -26 -28 -10 -53 -23 -56 -30 -3 -6 5 -33 16 -59 32 -72 37 -71
-95 -17 -6 2 -21 -21 -34 -52 -12 -30 -26 -57 -30 -60 -4 -3 -18 22 -30 56
-13 33 -28 58 -34 56 -92 -38 -116 -45 -116 -38 0 5 9 28 20 52 11 24 20 49
20 55 0 6 -28 23 -62 38 l-63 28 55 19 c30 11 58 23 64 29 5 5 1 28 -13 59
-11 27 -21 54 -21 60 0 6 25 0 56 -14 31 -14 60 -25 64 -25 4 0 18 25 30 55
12 30 26 55 30 55 4 0 18 -25 30 -55z m-273 -1041 c7 -19 -5 -64 -17 -64 -16
0 -40 45 -47 86 l-6 38 32 -23 c18 -13 35 -30 38 -37z m599 -32 c1 -26 3 -49
3 -51 1 -3 11 5 24 16 23 21 78 43 108 43 13 0 16 -5 12 -16 -5 -15 1 -16 48
-11 30 3 65 8 79 12 48 14 -10 -21 -68 -40 -59 -19 -70 -34 -53 -72 6 -14 10
-27 8 -30 -9 -8 -37 10 -42 28 -10 30 -25 22 -25 -13 0 -23 10 -40 40 -69 l39
-37 -32 9 c-17 5 -33 9 -35 9 -2 0 -29 24 -61 54 -31 30 -68 59 -83 65 -37 14
-92 -3 -136 -44 -31 -28 -37 -40 -37 -75 0 -35 6 -47 33 -71 43 -38 109 -39
207 -2 39 14 99 29 135 32 52 5 65 9 65 23 0 9 13 26 28 38 15 12 27 30 27 41
0 25 6 24 47 -7 38 -29 51 -27 34 4 -27 51 4 47 63 -7 l29 -26 -7 45 -7 44 25
-23 c14 -13 28 -32 32 -43 9 -30 23 -21 26 18 l3 36 28 -22 c18 -15 27 -31 27
-51 0 -35 6 -36 36 -8 l23 22 7 -27 c3 -14 4 -38 2 -51 -9 -45 35 -22 58 30 7
17 9 13 12 -18 4 -44 -12 -68 -59 -87 -25 -11 -29 -18 -29 -54 0 -65 -35 -116
-104 -150 -51 -25 -69 -28 -145 -28 -67 0 -97 4 -132 20 l-44 21 87 -6 c125
-8 207 9 259 56 36 32 42 43 46 86 4 41 1 55 -17 78 -73 92 -206 89 -503 -13
-167 -56 -266 -54 -322 9 -15 17 -20 37 -20 83 0 58 1 61 46 101 26 23 61 51
80 62 18 11 40 32 48 47 15 25 14 29 -8 52 -26 28 -17 35 15 11 28 -21 34 -18
34 17 l0 32 22 -22 c16 -16 23 -35 24 -70z m-687 32 c26 -33 26 -44 1 -44 -13
0 -27 14 -40 40 -11 21 -20 42 -20 45 0 12 39 -16 59 -41z m181 -29 c-47 -48
-80 -68 -80 -50 0 16 29 72 44 84 16 14 77 31 85 24 3 -2 -20 -28 -49 -58z
m-273 34 l28 -11 -23 -11 c-19 -9 -27 -7 -45 11 -18 18 -19 22 -5 22 9 0 29
-5 45 -11z m418 -30 c-22 -5 -50 -11 -62 -14 -12 -3 -35 -17 -53 -31 -34 -30
-48 -27 -30 6 16 31 66 49 130 49 l55 -1 -40 -9z m-790 -9 c3 -5 -1 -10 -9
-10 -9 0 -16 5 -16 10 0 6 4 10 9 10 6 0 13 -4 16 -10z m329 -5 c-6 -16 -31
-19 -59 -9 -23 9 0 24 37 24 20 0 26 -4 22 -15z m516 -3 c0 -22 -30 -43 -75
-53 -113 -24 -111 -24 -96 -5 32 39 171 86 171 58z m-432 -16 c15 -8 46 -19
70 -25 37 -11 42 -15 42 -41 0 -38 -12 -38 -59 1 -33 26 -42 29 -59 18 -38
-24 -72 17 -40 49 15 15 14 15 46 -2z m-351 -27 c9 -9 6 -19 -9 -39 -22 -31
-35 -155 -24 -232 6 -38 13 -49 44 -69 20 -13 52 -49 69 -79 l33 -54 -31 -32
-31 -32 23 -7 c23 -8 23 -9 -16 -42 -32 -28 -37 -36 -25 -43 8 -5 22 -10 31
-10 27 0 29 -12 9 -40 -11 -16 -20 -31 -20 -34 0 -3 20 -6 45 -6 46 0 54 -7
33 -28 -22 -22 -75 -14 -96 13 -19 24 -21 25 -62 10 -68 -24 -78 -20 -43 18
28 29 53 68 53 81 0 3 -14 0 -31 -6 -16 -6 -32 -8 -35 -6 -2 3 7 22 21 43 14
20 24 39 21 42 -2 2 -18 -3 -35 -12 -38 -19 -38 -14 -5 42 27 48 26 67 -4 40
-23 -21 -92 -50 -92 -39 0 5 17 18 38 29 42 24 88 70 80 79 -4 3 -20 -2 -37
-10 -16 -9 -38 -16 -47 -16 -14 0 -10 8 17 36 l34 37 -45 -7 c-41 -5 -43 -5
-26 9 11 8 25 15 31 15 7 0 20 9 31 21 23 26 10 50 -36 65 -33 11 -33 11 -8
17 28 7 41 30 33 57 -6 20 -45 33 -70 24 -13 -5 -16 -2 -13 17 2 19 10 25 36
27 41 4 44 35 5 56 l-27 14 34 21 c32 19 35 20 38 3 6 -28 17 -33 47 -22 26
10 27 12 11 29 -9 9 -13 21 -9 24 10 11 48 8 60 -4z m243 -14 c0 -10 -10 -15
-27 -15 l-28 1 25 14 c31 18 30 18 30 0z m334 -34 c10 -11 32 -21 49 -23 37
-4 44 -19 21 -43 -17 -17 -19 -16 -37 6 -17 21 -26 24 -79 20 -49 -2 -59 0
-53 11 30 51 69 62 99 29z m196 4 c11 -13 7 -15 -28 -15 -47 0 -74 8 -66 21 9
15 80 10 94 -6z m-409 -41 c-16 -35 -6 -42 30 -22 42 24 39 -2 -3 -37 l-33
-26 23 -19 c15 -13 19 -21 11 -26 -7 -4 -23 6 -39 26 -19 23 -29 29 -35 21 -4
-8 3 -24 19 -40 23 -24 26 -41 6 -41 -3 0 -16 17 -28 38 -21 38 -21 39 -3 96
18 59 38 83 55 66 6 -6 5 -20 -3 -36z m-81 12 c0 -14 -86 -33 -97 -22 -8 8 79
46 89 40 4 -3 8 -11 8 -18z m492 -61 c9 -27 17 -56 17 -62 2 -24 -17 -13 -27
16 -6 16 -22 37 -36 46 -36 24 -35 57 2 53 23 -3 30 -11 44 -53z m-192 -39
c-16 -53 -24 -63 -83 -92 -51 -26 -64 -26 -54 1 4 10 19 15 42 15 30 0 36 3
33 18 -2 9 -11 15 -19 13 -39 -11 -79 -12 -79 -2 0 7 10 9 27 5 26 -7 26 -7
20 37 -3 25 -2 51 3 59 9 15 8 16 25 -36 7 -21 39 -13 43 11 2 11 11 26 20 33
26 20 37 -12 22 -62z m-319 46 c-5 -10 -32 -41 -60 -70 -70 -72 -109 -69 -59
4 37 54 144 114 119 66z m187 -4 c-1 -13 2 -33 6 -45 8 -26 -1 -29 -28 -8 -10
8 -23 12 -27 9 -17 -10 -9 5 19 34 34 37 32 36 30 10z m281 -37 c11 -11 22
-40 26 -68 3 -26 10 -77 15 -113 5 -35 7 -66 5 -68 -9 -9 -43 62 -55 116 -7
31 -25 75 -41 96 -15 21 -26 43 -23 48 9 15 54 8 73 -11z m-67 -42 c10 -13 27
-59 37 -101 10 -42 26 -88 35 -102 20 -32 6 -34 -28 -3 -23 19 -56 106 -83
216 -7 30 13 25 39 -10z m-399 7 c8 -19 -83 -116 -107 -116 -21 0 -22 -3 47
83 41 50 52 56 60 33z m42 -66 c20 -40 20 -43 -16 -59 -18 -8 -43 -33 -59 -60
-34 -55 -81 -113 -87 -107 -2 2 0 12 6 23 6 10 26 53 46 96 36 83 70 137 85
137 5 0 16 -13 25 -30z m319 -7 c9 -21 21 -63 26 -93 6 -30 15 -59 20 -64 18
-18 10 -26 -14 -15 -19 9 -31 32 -54 100 -20 61 -26 91 -18 99 16 16 22 12 40
-27z m-238 -52 c7 8 14 23 17 34 4 16 5 15 6 -5 1 -27 -23 -70 -40 -70 -5 0
-8 24 -8 53 2 50 2 51 8 13 5 -32 8 -37 17 -25z m193 -22 c6 -28 11 -76 11
-109 0 -99 -32 -85 -44 20 -4 30 -12 75 -18 98 -9 36 -8 46 3 52 21 13 37 -6
48 -61z m-68 -1 c8 -30 9 -76 3 -153 l-9 -110 -23 35 c-20 31 -22 43 -17 110
3 41 1 90 -4 107 -8 27 -7 35 7 43 27 15 31 12 43 -32z m-187 -22 c8 -32 -59
-234 -87 -264 -25 -27 -59 -46 -101 -56 -27 -7 -24 -2 31 51 61 58 83 102 83
163 0 38 17 90 36 111 23 25 31 24 38 -5z m-1142 -85 c29 12 59 23 66 26 17 7
15 -1 -13 -57 -14 -27 -25 -54 -25 -59 0 -6 27 -20 60 -32 33 -12 57 -25 55
-29 -3 -5 -27 -16 -53 -26 -26 -9 -51 -21 -56 -25 -4 -4 3 -33 18 -64 14 -32
26 -59 26 -61 0 -3 -26 6 -117 43 -8 3 -24 -19 -42 -58 -27 -61 -29 -63 -39
-39 -39 99 -41 102 -63 95 -12 -4 -40 -15 -63 -26 -22 -10 -42 -16 -44 -14 -2
2 8 30 22 61 30 65 31 63 -46 91 -27 9 -48 20 -48 24 0 3 27 17 60 29 33 12
60 24 60 25 0 1 -11 28 -25 59 -29 65 -30 70 -12 63 6 -3 36 -14 65 -26 l53
-21 8 23 c5 12 16 40 26 62 l17 40 29 -63 28 -62 53 21z m3243 36 c10 -26 21
-49 24 -51 3 -2 33 7 65 20 33 13 61 22 63 21 2 -2 -8 -29 -22 -61 -14 -31
-25 -58 -25 -60 0 -2 27 -14 60 -26 33 -12 60 -26 60 -29 0 -4 -24 -15 -52
-25 -29 -11 -56 -22 -61 -26 -4 -3 4 -33 18 -64 14 -32 24 -60 23 -62 -2 -1
-22 5 -44 15 -23 11 -51 22 -63 26 -22 7 -24 4 -63 -95 -10 -24 -12 -22 -39
38 -32 70 -29 69 -113 31 -22 -10 -42 -17 -43 -15 -2 2 8 29 22 61 15 32 22
61 18 65 -4 4 -29 15 -55 24 -26 10 -50 21 -53 26 -2 4 22 18 55 30 67 25 67
26 29 102 -22 44 -23 52 -6 45 6 -3 36 -14 65 -26 l53 -21 26 61 c14 33 29 56
33 52 4 -4 15 -30 25 -56z m-1983 26 c2 -16 -1 -70 -6 -121 -8 -80 -7 -97 8
-128 21 -45 17 -50 -19 -22 l-28 22 6 -45 7 -44 -20 24 c-30 35 -29 103 1 209
10 37 19 79 19 93 0 45 25 55 32 12z m-52 -31 c0 -10 -11 -51 -25 -90 -19 -53
-25 -93 -25 -154 l-1 -83 -17 30 c-12 22 -17 54 -17 120 0 107 17 172 48 185
32 13 37 12 37 -8z m850 -30 c19 -22 44 -55 55 -73 11 -18 45 -53 75 -77 60
-48 94 -96 112 -155 13 -42 59 -87 88 -87 11 0 44 9 75 21 54 20 57 20 75 4
20 -18 77 -17 125 1 35 14 5 -16 -48 -46 -49 -28 -51 -30 -22 -30 17 0 45 4
63 9 17 5 32 6 32 2 0 -11 -56 -41 -77 -41 -10 0 -25 -5 -33 -10 -11 -7 -3
-11 30 -16 l45 -8 -43 -9 c-60 -12 -43 -27 31 -27 58 0 60 -1 44 -17 -13 -13
-34 -18 -72 -18 -30 0 -55 -3 -55 -8 0 -14 53 -28 84 -22 29 6 30 5 12 -10
-11 -8 -39 -15 -65 -15 -50 0 -46 -13 9 -28 l35 -10 -47 -1 c-59 -1 -61 -16
-7 -40 57 -26 34 -35 -66 -26 -102 8 -123 0 -127 -53 -2 -30 -7 -38 -26 -40
-26 -4 -52 13 -52 34 0 8 9 14 20 14 23 0 26 22 6 39 -11 9 -20 9 -35 2 -33
-18 -51 -13 -51 14 0 21 5 25 30 25 43 0 51 27 16 55 l-28 22 25 28 24 29 24
-37 c29 -45 49 -53 87 -33 38 20 66 78 58 121 -10 53 -34 66 -138 77 -114 11
-161 23 -213 53 -44 25 -116 98 -185 188 -25 31 -52 57 -61 57 -10 0 -82 -31
-160 -70 -79 -38 -147 -70 -152 -70 -5 0 1 14 13 30 29 40 15 38 -59 -10 -33
-22 -73 -43 -87 -46 l-26 -7 17 33 c23 44 13 48 -35 14 -71 -51 -114 -74 -142
-74 -36 0 -35 -14 2 -37 17 -9 30 -21 30 -25 0 -11 -48 -10 -88 1 -44 13 -44
-12 0 -35 27 -14 29 -18 15 -26 -15 -8 -64 0 -113 19 -23 9 -16 -15 8 -28 13
-7 43 -18 68 -24 l45 -12 -43 -12 c-30 -9 -53 -9 -80 -1 -20 5 -41 10 -45 10
-15 0 9 -31 39 -51 l29 -19 -30 0 c-16 0 -43 7 -59 15 -40 21 -45 10 -12 -24
33 -35 22 -46 -31 -32 -72 20 -80 7 -19 -30 l31 -19 -32 0 c-18 0 -48 7 -67
16 -32 16 -35 16 -60 -2 -16 -12 -31 -39 -41 -71 -16 -56 -31 -68 -37 -30 -5
37 -52 36 -74 -2 -24 -40 -37 -44 -68 -20 -33 26 -33 39 0 39 22 0 25 4 22 28
-2 19 -8 26 -20 25 -10 -2 -26 -4 -35 -5 -14 -2 -19 5 -21 30 -3 31 -2 32 30
30 29 -3 33 0 36 25 3 24 0 27 -27 27 -35 0 -38 6 -15 38 20 29 28 28 45 -5
17 -31 80 -62 129 -63 44 0 118 36 143 71 10 14 21 44 24 67 5 34 12 45 40 62
19 11 40 35 49 55 14 34 34 40 34 9 0 -25 18 -15 29 16 12 36 45 40 62 8 23
-44 49 -45 49 -3 0 24 2 24 47 18 l47 -6 -17 26 c-22 34 -21 40 3 32 32 -10
62 4 55 25 -5 15 0 21 18 25 22 6 24 10 19 52 -5 49 -3 50 50 28 14 -5 17 0
20 32 3 37 4 38 38 35 49 -4 163 15 240 40 127 42 235 67 270 63 25 -3 45 -15
70 -43z m-1024 -76 c-12 -28 -26 -42 -61 -57 -26 -11 -49 -18 -52 -15 -3 3 12
25 33 48 22 24 51 58 64 77 25 33 25 33 28 8 2 -14 -4 -41 -12 -61z m64 -138
c0 -18 -7 -41 -14 -51 -12 -16 -14 -16 -20 -1 -10 25 -7 59 6 72 20 20 28 14
28 -20z m640 -52 c0 -2 -7 -22 -15 -45 -8 -22 -12 -41 -9 -41 4 0 29 20 56 45
l50 45 25 -20 c32 -25 59 -26 72 -2 10 15 15 12 52 -26 29 -30 39 -48 34 -60
-4 -9 -10 -38 -12 -63 -5 -42 -3 -48 22 -65 15 -11 39 -29 52 -42 l25 -23 -37
-41 c-32 -34 -36 -45 -32 -74 6 -37 -6 -45 -22 -15 -7 12 -7 31 0 56 6 20 8
39 5 42 -9 9 -45 -59 -51 -99 -4 -21 -11 -36 -16 -32 -12 7 -11 61 1 85 6 10
7 19 2 19 -13 0 -37 -30 -60 -75 l-21 -40 -1 49 c0 48 0 49 -20 31 -11 -10
-25 -33 -32 -51 -15 -43 -27 -43 -35 -2 l-6 32 -18 -42 c-21 -48 -38 -56 -31
-14 5 36 -33 72 -86 79 -35 5 -44 1 -79 -31 -47 -42 -76 -46 -99 -11 -20 30
-11 45 27 45 26 0 30 3 27 23 -3 19 -8 22 -41 20 -33 -2 -37 0 -37 21 0 34 23
50 50 36 26 -14 44 -2 38 26 -2 12 -13 20 -31 22 -30 4 -35 23 -11 46 21 21
27 20 53 -8 13 -13 35 -27 49 -31 14 -3 40 -22 57 -41 36 -43 83 -52 170 -34
64 13 115 53 115 89 0 11 -12 29 -26 40 -22 17 -41 21 -106 21 -95 0 -143 17
-152 54 -4 15 -2 35 4 46 13 24 100 73 100 56z m-300 -195 c0 -6 -4 -12 -9
-15 -13 -8 -42 4 -35 15 7 12 44 12 44 0z m-43 -127 c-2 -2 -12 -1 -22 3 -18
6 -18 7 1 13 17 7 33 -5 21 -16z m848 -14 c-3 -5 -17 -10 -31 -10 -14 0 -22 4
-19 10 3 6 17 10 31 10 14 0 22 -4 19 -10z m-570 -110 c-3 -5 -15 -15 -26 -21
-19 -10 -20 -9 -9 10 6 12 18 21 26 21 8 0 12 -4 9 -10z m543 -38 c2 -7 -5
-12 -17 -12 -14 0 -19 5 -14 15 6 17 25 15 31 -3z m302 -19 c0 -5 -5 -15 -10
-23 -8 -12 -10 -11 -10 8 0 12 5 22 10 22 6 0 10 -3 10 -7z m-1926 -28 c4 -11
-2 -15 -21 -15 -26 0 -26 1 -7 15 10 8 20 15 20 15 1 0 4 -7 8 -15z m1684 -62
c-10 -2 -26 -2 -35 0 -10 3 -2 5 17 5 19 0 27 -2 18 -5z m-1548 -653 c0 -352
-2 -640 -4 -640 -6 0 -970 457 -1056 500 -86 44 -153 109 -193 189 l-32 65 -3
263 -3 263 645 0 646 0 0 -640z m2928 377 l-3 -263 -32 -65 c-39 -79 -107
-145 -192 -188 -83 -42 -1051 -501 -1057 -501 -2 0 -4 288 -4 640 l0 640 646
0 645 0 -3 -263z m-2083 -280 c10 -26 22 -50 26 -53 4 -2 34 6 66 20 32 13 59
23 61 21 2 -1 -9 -28 -23 -60 -14 -32 -25 -59 -25 -61 0 -1 27 -13 60 -25 33
-12 60 -25 60 -29 0 -4 -27 -17 -60 -29 -33 -12 -60 -24 -60 -25 0 -2 11 -29
25 -60 14 -31 25 -59 25 -61 0 -4 -24 5 -118 42 -11 5 -20 -11 -54 -97 -10
-24 -12 -22 -39 38 -16 35 -32 62 -36 60 -55 -24 -105 -40 -110 -35 -3 4 4 29
16 58 12 28 21 52 19 54 -2 2 -30 15 -63 30 l-60 27 57 22 c31 12 60 24 63 28
4 3 -4 29 -16 57 -12 29 -19 54 -16 58 4 3 30 -4 58 -15 28 -12 55 -20 59 -17
4 3 18 30 30 60 13 31 26 53 30 48 4 -4 15 -30 25 -56z"/>
<path d="M3256 8164 c-30 -29 -21 -48 42 -85 42 -25 32 -43 -19 -34 -40 7 -49
-1 -27 -23 17 -17 74 -15 93 4 25 26 14 57 -27 77 -47 23 -52 52 -8 44 32 -7
51 10 29 24 -22 14 -66 10 -83 -7z"/>
<path d="M3435 8157 c-39 -33 -39 -91 -1 -123 29 -26 74 -31 107 -13 30 15 12
31 -27 23 -26 -5 -40 -2 -54 11 -45 41 -8 102 54 91 39 -8 57 8 27 23 -32 18
-78 13 -106 -12z"/>
<path d="M3610 8095 c0 -69 3 -85 15 -85 12 0 15 16 15 85 0 69 -3 85 -15 85
-12 0 -15 -16 -15 -85z"/>
<path d="M3704 8167 c-3 -8 -4 -45 -2 -83 l3 -69 48 -3 c37 -2 47 0 47 12 0
11 -10 16 -30 16 -23 0 -30 4 -30 20 0 16 7 20 30 20 20 0 30 5 30 15 0 10
-10 15 -30 15 -23 0 -30 5 -30 19 0 15 8 21 33 23 49 5 38 23 -16 26 -33 2
-49 -1 -53 -11z"/>
<path d="M3870 8095 c0 -69 3 -85 15 -85 11 0 15 13 15 53 1 51 1 52 18 31 9
-12 25 -36 34 -53 11 -19 25 -31 38 -31 19 0 20 6 20 85 0 78 -2 85 -19 85
-17 0 -20 -8 -23 -52 l-3 -53 -30 52 c-18 32 -37 53 -47 53 -16 0 -18 -11 -18
-85z"/>
<path d="M4060 8165 c0 -8 9 -15 20 -15 18 0 20 -7 20 -70 0 -56 3 -70 15 -70
12 0 15 14 15 70 0 63 2 70 20 70 11 0 20 7 20 15 0 12 -13 15 -55 15 -42 0
-55 -3 -55 -15z"/>
<path d="M4227 8173 c-4 -3 -7 -42 -7 -85 0 -71 2 -78 20 -78 18 0 20 7 20 85
0 64 -3 85 -13 85 -8 0 -17 -3 -20 -7z"/>
<path d="M4365 8171 c-9 -16 -55 -141 -55 -151 0 -16 27 -12 34 5 3 9 18 15
40 15 21 0 36 -6 40 -15 5 -13 36 -22 36 -11 0 2 -14 41 -31 85 -28 75 -48 97
-64 72z m32 -97 c-3 -3 -12 -4 -20 -2 -11 2 -12 9 -5 28 l10 25 11 -23 c5 -12
8 -25 4 -28z"/>
<path d="M1667 3559 c-44 -26 -47 -57 -47 -461 0 -221 4 -398 10 -419 5 -19
22 -47 37 -62 16 -15 156 -82 333 -160 168 -74 450 -198 628 -277 l322 -143 0
-132 c0 -113 3 -134 18 -148 22 -20 284 -91 432 -117 307 -53 593 -53 900 0
148 26 410 97 433 117 14 14 17 35 17 148 l0 132 533 236 c292 130 571 253
619 273 112 47 152 80 167 138 14 55 15 752 1 811 -11 48 -41 75 -85 75 -19 0
-93 -29 -186 -73 -85 -41 -457 -213 -826 -382 l-673 -308 0 -217 0 -218 -80
-11 c-223 -33 -531 -32 -750 2 l-75 12 -5 219 -5 219 -705 323 c-388 178 -756
348 -818 379 -113 55 -159 65 -195 44z m233 -122 c96 -46 448 -209 783 -362
334 -153 607 -281 607 -284 0 -4 -64 -63 -142 -133 -79 -69 -155 -137 -170
-151 l-28 -26 0 -191 c0 -104 -2 -190 -5 -190 -3 0 -227 98 -497 219 -271 120
-542 240 -603 266 -60 26 -122 59 -137 73 l-28 26 0 406 c0 408 2 430 35 430
5 0 89 -37 185 -83z m4110 64 c6 -13 10 -161 10 -414 0 -460 10 -422 -122
-481 -392 -178 -1135 -503 -1140 -499 -5 2 -8 86 -8 187 l0 183 -57 54 c-32
30 -109 99 -170 153 -62 54 -113 102 -113 106 0 4 278 135 618 290 339 156
689 318 777 361 88 42 168 78 177 78 10 1 22 -8 28 -18z m-2670 -931 c0 -167
0 -170 -22 -170 -23 0 -255 58 -275 69 -8 4 43 56 135 138 81 73 150 132 155
132 4 1 7 -75 7 -169z m1198 21 c67 -61 122 -114 122 -118 -1 -7 -189 -61
-267 -76 l-33 -6 0 175 0 175 28 -20 c15 -11 82 -69 150 -130z m-1419 -206
c469 -135 939 -138 1429 -10 72 19 137 35 142 35 7 0 9 -105 8 -307 l-3 -307
-90 -28 c-400 -124 -870 -145 -1285 -57 -98 21 -248 61 -294 79 l-26 10 0 311
c0 284 1 311 16 305 9 -4 56 -18 103 -31z"/>
<path d="M1868 3094 c-34 -18 -58 -62 -58 -106 0 -51 32 -93 84 -113 44 -17
47 -17 66 0 11 10 20 24 20 32 0 16 -2 16 -34 2 -59 -27 -105 23 -85 95 9 34
59 86 83 86 22 0 54 -29 60 -55 8 -33 30 -27 34 8 7 54 -104 87 -170 51z"/>
<path d="M2106 3009 c-60 -16 -104 -88 -91 -148 15 -70 121 -115 180 -77 37
24 65 75 65 118 0 71 -80 127 -154 107z m84 -39 c36 -36 18 -134 -29 -160 -32
-17 -69 -12 -85 12 -21 30 -20 61 4 108 31 61 73 77 110 40z"/>
<path d="M2324 2915 c7 -20 -67 -170 -91 -183 -14 -8 -10 -13 25 -31 l42 -21
-1 22 c-2 34 18 78 35 78 24 0 39 -39 32 -81 -6 -39 10 -69 38 -69 13 0 13 35
2 117 -2 16 4 22 25 27 32 6 49 47 32 75 -9 15 -119 80 -137 81 -4 0 -5 -7 -2
-15z m77 -45 c24 -13 25 -56 2 -68 -17 -9 -63 1 -63 13 0 10 30 65 36 65 3 0
14 -5 25 -10z"/>
<path d="M2540 2812 c0 -29 -69 -172 -86 -179 -26 -10 -15 -24 39 -48 99 -47
183 -21 206 62 18 66 -13 110 -116 162 -41 20 -43 21 -43 3z m95 -67 c31 -31
32 -71 2 -116 -19 -28 -30 -34 -62 -37 -71 -4 -75 6 -30 97 21 45 45 81 52 81
8 0 25 -11 38 -25z"/>
<path d="M2770 2690 c0 -26 -55 -137 -82 -167 l-20 -22 75 -37 c75 -37 77 -38
97 -19 25 23 27 51 3 39 -26 -11 -82 -9 -95 4 -8 8 -8 19 2 42 17 41 24 44 61
25 21 -12 35 -13 42 -6 7 7 -1 15 -27 27 -20 10 -36 21 -36 25 0 18 24 59 34
59 21 0 56 -31 56 -50 0 -32 18 -32 35 0 l16 30 -77 35 c-42 19 -78 35 -80 35
-2 0 -4 -9 -4 -20z"/>
<path d="M5746 3095 c-82 -41 -84 -42 -64 -58 23 -17 81 -156 75 -178 -7 -25
-4 -24 76 10 83 34 90 41 81 75 -7 30 -34 36 -34 7 0 -18 -43 -61 -61 -61 -9
0 -39 53 -39 69 0 6 17 18 37 26 27 11 34 18 25 27 -8 8 -20 7 -44 -5 l-33
-16 -17 32 c-15 30 -16 33 0 45 19 14 68 16 77 2 3 -5 10 -10 16 -10 15 0 10
26 -8 48 -18 20 -18 20 -87 -13z"/>
<path d="M5555 3009 c-44 -21 -84 -40 -88 -41 -12 -5 15 -59 27 -55 6 2 13 14
16 28 12 48 34 32 68 -48 18 -43 32 -88 32 -100 0 -21 1 -21 40 -6 43 17 49
27 24 37 -14 5 -84 142 -84 165 0 14 47 14 55 1 3 -5 10 -10 16 -10 15 0 10
26 -8 48 -18 20 -19 20 -98 -19z"/>
<path d="M5413 2945 c-34 -14 -44 -35 -18 -35 8 0 28 -27 45 -60 17 -33 27
-60 23 -60 -5 0 -46 23 -92 50 -83 48 -84 49 -115 33 -28 -15 -29 -16 -10 -23
26 -10 87 -144 81 -177 -5 -27 -4 -27 40 -11 38 14 42 23 13 31 -18 5 -78 112
-68 122 2 2 39 -19 83 -45 77 -47 108 -59 118 -42 3 4 -13 48 -34 97 -24 55
-37 99 -34 113 3 12 4 22 3 22 -2 -1 -18 -7 -35 -15z"/>
<path d="M5115 2814 c-65 -32 -92 -54 -66 -54 17 0 83 -151 78 -177 -2 -13 -1
-23 2 -23 7 0 154 60 159 65 8 7 -10 65 -19 65 -5 0 -14 -11 -19 -24 -8 -23
-45 -56 -62 -56 -8 0 -38 53 -38 68 0 4 16 16 36 26 26 12 34 20 27 27 -7 7
-21 5 -43 -6 -27 -14 -34 -15 -41 -3 -14 20 -22 58 -15 65 9 9 68 8 89 -1 12
-6 17 -4 17 7 0 8 -8 24 -17 35 -18 20 -18 20 -88 -14z"/>
<path d="M4963 2745 c-33 -14 -33 -15 -33 -85 0 -38 -3 -70 -6 -70 -4 0 -29
20 -56 46 -26 25 -52 43 -57 40 -4 -3 -20 -10 -36 -16 -26 -10 -27 -11 -7 -28
25 -23 75 -139 74 -174 -1 -33 0 -33 40 -12 l31 16 -25 21 c-14 12 -38 48 -52
81 -29 65 -25 65 54 -11 61 -58 73 -49 68 51 -2 42 -2 76 0 76 10 0 63 -136
59 -151 -6 -23 5 -24 43 -4 30 15 40 35 19 35 -15 0 -90 166 -83 185 7 18 8
18 -33 0z"/>
<path d="M3116 2143 c7 -36 -22 -162 -43 -185 -17 -19 -16 -20 40 -32 28 -7
35 2 15 22 -9 9 -8 28 1 82 7 38 16 68 20 65 4 -2 13 -36 20 -75 8 -46 17 -70
26 -70 8 0 33 27 56 60 23 33 44 58 46 56 8 -7 -19 -120 -34 -144 -15 -24 -15
-24 41 -37 26 -5 28 -4 22 17 -8 31 23 180 41 195 16 13 10 18 -33 27 -28 6
-33 3 -68 -49 -21 -30 -42 -55 -45 -55 -4 0 -13 28 -19 62 -13 70 -15 73 -59
83 -32 6 -33 6 -27 -22z"/>
<path d="M4493 2147 c-85 -21 -93 -29 -77 -71 7 -19 24 -21 24 -3 0 18 36 51
43 40 14 -22 46 -173 40 -189 -5 -15 -2 -16 33 -10 49 10 51 12 31 34 -9 10
-25 55 -35 100 l-19 82 22 0 c12 0 28 -7 35 -15 19 -23 33 -3 21 28 -12 31
-11 31 -118 4z"/>
<path d="M4285 2108 c-33 -5 -61 -11 -63 -12 -1 -2 5 -17 14 -35 10 -21 17
-62 18 -117 l1 -84 45 6 c121 17 125 19 128 42 2 13 1 31 -3 40 -5 13 -10 11
-31 -16 -29 -37 -84 -46 -84 -14 0 9 -3 27 -6 39 -5 20 -1 23 35 29 56 9 55
33 -1 31 -43 -2 -43 -2 -43 33 0 32 3 35 32 38 24 2 35 -2 45 -17 19 -31 30
-26 26 12 -4 38 -18 41 -113 25z"/>
<path d="M3493 2088 c-5 -7 -31 -50 -57 -95 -26 -45 -54 -87 -62 -94 -18 -15
-2 -29 34 -29 18 0 21 4 17 23 -8 36 7 49 55 45 38 -3 45 -7 51 -30 4 -17 3
-31 -4 -35 -13 -8 17 -21 52 -22 18 -1 22 3 16 17 -7 18 -36 116 -55 190 -11
42 -29 53 -47 30z m4 -126 c-33 -6 -40 12 -21 49 l18 34 11 -40 c11 -37 10
-40 -8 -43z"/>
<path d="M3640 2081 c0 -6 5 -13 10 -16 17 -10 12 -171 -5 -189 -23 -22 -19
-26 26 -26 36 0 40 2 29 15 -11 14 -16 132 -6 142 2 2 28 -34 57 -81 32 -50
61 -86 70 -86 20 0 29 39 29 131 0 47 5 72 15 83 23 22 19 26 -25 26 -37 0
-55 -13 -29 -22 6 -2 9 -30 7 -73 l-3 -69 -53 81 c-49 75 -70 92 -109 93 -7 0
-13 -4 -13 -9z"/>
<path d="M4062 2081 c-10 -6 -10 -10 3 -21 23 -19 21 -151 -3 -173 -23 -21
-56 -22 -75 -2 -21 20 -34 160 -17 180 11 13 7 15 -30 15 -36 0 -41 -2 -34
-17 4 -10 10 -56 13 -101 5 -72 9 -86 30 -103 43 -35 128 -19 150 28 6 13 11
57 11 98 0 41 5 77 10 80 6 3 10 10 10 16 0 11 -50 12 -68 0z"/>
</g>
</svg>
